<?xml version="1.0" standalone="no"?>
<!DOCTYPE svg PUBLIC "-//W3C//DTD SVG 20010904//EN"
 "http://www.w3.org/TR/2001/REC-SVG-20010904/DTD/svg10.dtd">
<svg version="1.0" xmlns="http://www.w3.org/2000/svg"
 width="774.000000pt" height="774.000000pt" viewBox="0 0 774.000000 774.000000"
 preserveAspectRatio="xMidYMid meet">
<metadata>
Created by potrace 1.14, written by Peter Selinger 2001-2017
</metadata>
<g transform="translate(0.000000,774.000000) scale(0.100000,-0.100000)"
fill="#000000" stroke="none">
<path d="M6090 7138 c-51 -62 -99 -122 -108 -133 -10 -11 -41 -50 -70 -88 -30
-37 -59 -68 -65 -68 -23 -3 -214 8 -281 16 -16 2 -80 7 -143 10 -106 7 -113 6
-113 -11 0 -11 56 -104 125 -209 68 -104 123 -191 121 -192 -1 -2 -902 -3
-2002 -3 -1956 -1 -2000 -1 -2056 -20 -80 -28 -134 -67 -215 -157 -39 -43 -82
-90 -95 -104 -12 -14 -54 -61 -93 -104 -78 -88 -152 -170 -175 -195 -8 -9 -51
-56 -95 -106 -44 -49 -84 -94 -90 -100 -5 -6 -41 -45 -79 -87 -38 -43 -78 -88
-90 -100 -19 -21 -88 -98 -212 -236 -22 -25 -67 -75 -100 -111 -134 -148 -175
-199 -206 -261 -31 -60 -32 -70 -32 -169 1 -91 4 -112 27 -162 23 -51 104
-158 161 -213 12 -11 34 -36 50 -55 15 -19 47 -55 70 -80 22 -25 73 -81 111
-125 39 -44 77 -86 85 -95 14 -15 74 -83 185 -210 27 -30 51 -57 54 -60 3 -3
55 -61 115 -130 60 -69 114 -130 120 -135 6 -6 40 -44 76 -85 36 -41 69 -80
75 -86 10 -10 103 -116 142 -160 19 -22 123 -138 208 -234 28 -31 82 -91 120
-135 39 -43 75 -83 80 -89 6 -6 39 -45 75 -86 36 -41 84 -95 106 -120 178
-195 176 -193 168 -230 -15 -72 -10 -242 9 -300 36 -110 122 -196 226 -227 61
-17 192 -14 230 6 25 14 24 14 122 -98 35 -41 73 -84 84 -95 11 -12 49 -55 85
-95 36 -41 70 -79 75 -85 6 -6 41 -47 79 -91 39 -44 75 -84 80 -90 6 -5 58
-64 116 -130 58 -66 110 -124 116 -130 5 -5 41 -46 80 -90 38 -44 78 -89 89
-101 11 -12 47 -52 80 -90 107 -125 164 -175 233 -207 60 -28 77 -31 167 -31
88 -1 107 2 157 26 82 38 117 67 215 182 48 55 99 115 114 131 15 17 62 71
104 120 43 50 89 104 104 120 14 17 53 62 86 100 33 39 62 72 65 75 3 3 32 37
65 75 33 39 62 72 65 75 3 3 46 52 95 110 100 117 135 158 150 174 6 6 51 58
100 116 50 58 104 121 121 140 18 19 109 125 204 235 196 228 217 252 401 465
170 196 448 517 474 549 11 13 31 36 45 51 14 15 45 51 69 80 25 29 50 58 55
64 6 6 51 58 101 116 49 58 92 107 95 110 5 5 355 411 395 459 11 13 27 31 36
40 8 9 55 63 105 121 49 58 91 107 94 110 3 3 32 36 65 75 33 38 74 85 92 105
133 147 172 292 122 445 -28 85 -63 130 -235 305 -89 91 -220 224 -290 295
-69 72 -273 280 -453 463 -179 183 -328 335 -329 337 -2 2 11 11 30 21 18 9
35 20 38 23 3 4 57 38 120 76 154 93 248 153 255 165 9 15 -30 34 -272 126
-249 94 -232 84 -247 159 -3 11 -25 106 -50 210 -26 105 -48 200 -51 213 -11
45 -42 25 -135 -90z m-3731 -5232 l26 -29 -35 26 c-19 14 -43 41 -54 59 l-18
33 27 -30 c16 -16 40 -43 54 -59z"/>
</g>
</svg>
